#!OML:ASF X:\für Bonn\!DataBase\2005_08_10_Bjorn_Final\c3d\bjorn.ASF
:FULLY-SPECIFIED
:DEGREES
286
root 1.35729 4.15802 19.6001 -424.35 -166.147 -718.272
lowerback 57.107 4.94237 9.69536
upperback 23.1891 -2.56756 3.30075
thorax 5.3764 -6.88068 -0.403152
lowerneck -4.82088 4.30915 -10.0036
upperneck 12.7191 6.92511 -14.1116
head 4.87037 1.41931 -2.44033
rclavicle -3.2054e-015 -2.34566e-014
rhumerus -215.652 -161.454 92.2915
rradius 23.6735
rwrist -42.4886
rhand -16.8623 -14.7627
rfingers 7.12502
rthumb 9.36817 -44.5346
lclavicle -3.2054e-015 -2.34566e-014
lhumerus -36.5053 0.628229 89.9324
lradius 23.104
lwrist 29.0187
lhand -28.9008 -348.566
lfingers 7.12502
lthumb -2.25593 41.402
rfemur -70.1566 -40.1576 1.7767
rtibia 120.845
rfoot 21.5075 17.345
rtoes 11.4124
lfemur 103.455 155.48 169.644
ltibia 133.021
lfoot 3.58364 -5.94912
ltoes 0.468265
287
root 1.34398 4.11381 19.5608 -424.527 -166.286 -718.299
lowerback 57.158 4.90479 9.81661
upperback 23.2936 -2.66137 3.30295
thorax 5.5078 -6.96083 -0.44143
lowerneck -4.53543 4.39858 -9.57657
upperneck 12.4907 6.96741 -14.2717
head 4.76564 1.49188 -2.55634
rclavicle 4.55962e-014 -9.74045e-015
rhumerus -215.804 -163.033 91.7888
rradius 24.3091
rwrist -43.5038
rhand -16.6834 -15.2702
rfingers 7.12502
rthumb 9.54079 -45.0342
lclavicle 4.55962e-014 -9.74045e-015
lhumerus -37.0175 0.187802 90.0711
lradius 23.8746
lwrist 29.6809
lhand -28.8719 -348.403
lfingers 7.12502
lthumb -2.22798 41.5652
rfemur -70.3884 -40.5049 1.8076
rtibia 121.168
rfoot 21.7485 17.5608
rtoes 12.0602
lfemur 103.296 156.385 169.309
ltibia 132.255
lfoot 4.22283 -6.14186
ltoes 0.0345571
288
root 1.33072 4.06924 19.5199 -424.692 -166.412 -718.367
lowerback 57.1952 4.89602 9.87069
upperback 23.3938 -2.75333 3.30788
thorax 5.63031 -7.0465 -0.447785
lowerneck -4.23354 4.49718 -9.20714
upperneck 12.2265 7.01785 -14.3982
head 4.64498 1.57164 -2.65313
rclavicle 2.18912e-014 -1.48095e-014
rhumerus -216.013 -164.674 91.3177
rradius 24.9436
rwrist -44.5045
rhand -16.5505 -15.7362
rfingers 7.12502
rthumb 9.66904 -45.4943
lclavicle 2.18912e-014 -1.48095e-014
lhumerus -37.5906 -0.301374 90.2647
lradius 24.7097
lwrist 30.4695
lhand -28.8487 -348.154
lfingers 7.12502
lthumb -2.20561 41.8143
rfemur -70.662 -40.8341 1.82485
rtibia 121.513
rfoot 21.9451 17.8657
rtoes 12.4931
lfemur 103.159 157.185 168.955
ltibia 131.485
lfoot 4.92655 -6.29441
ltoes -0.665531
289
root 1.31766 4.02257 19.4759 -424.867 -166.514 -718.436
lowerback 57.2233 4.90005 9.91298
upperback 23.4975 -2.8335 3.32671
thorax 5.75748 -7.12817 -0.438832
lowerneck -3.96462 4.576 -8.81972
upperneck 11.9977 7.05349 -14.5375
head 4.54231 1.63889 -2.75748
rclavicle 3.89866e-014 4.42296e-015
rhumerus -216.23 -166.372 90.8151
rradius 25.5614
rwrist -45.5649
rhand -16.4805 -16.0826
rfingers 7.12502
rthumb 9.73659 -45.8375
lclavicle 3.89866e-014 4.42296e-015
lhumerus -38.1712 -0.81331 90.4695
lradius 25.5574
lwrist 31.316
lhand -28.8296 -347.943
lfingers 7.12502
lthumb -2.18711 42.0256
rfemur -70.9488 -41.1735 1.80236
rtibia 121.875
rfoot 22.2257 18.1085
rtoes 13.204
lfemur 103.055 157.924 168.607
ltibia 130.712
lfoot 5.69993 -6.33992
ltoes -1.3348
290
root 1.304 3.97436 19.4305 -425.061 -166.62 -718.494
lowerback 57.2426 4.88156 9.9741
upperback 23.5979 -2.9275 3.3346
thorax 5.88206 -7.21177 -0.445779
lowerneck -3.69902 4.64102 -8.44395
upperneck 11.7765 7.07313 -14.664
head 4.44176 1.69726 -2.85723
rclavicle 1.81639e-014 7.45443e-016
rhumerus -216.496 -168.033 90.3251
rradius 26.1594
rwrist -46.6264
rhand -16.4273 -16.421
rfingers 7.12502
rthumb 9.78794 -46.1735
lclavicle 1.81639e-014 7.45443e-016
lhumerus -38.8206 -1.50903 90.7554
lradius 26.4607
lwrist 32.3679
lhand -28.8543 -347.671
lfingers 7.12502
lthumb -2.21096 42.2975
rfemur -71.2176 -41.4953 1.77726
rtibia 122.252
rfoot 22.4604 18.3742
rtoes 13.8335
lfemur 102.982 158.595 168.31
ltibia 129.954
lfoot 6.5667 -6.26456
ltoes -1.52476
291
root 1.29128 3.92546 19.3824 -425.238 -166.721 -718.543
lowerback 57.2099 4.88122 10.0135
upperback 23.7074 -3.00776 3.37039
thorax 6.01982 -7.29067 -0.421076
lowerneck -3.47316 4.69908 -8.13384
upperneck 11.5908 7.09585 -14.7288
head 4.35564 1.75292 -2.92709
rclavicle -1.48592e-014 -2.28602e-015
rhumerus -216.815 -169.871 89.7632
rradius 26.8388
rwrist -47.8958
rhand -16.4497 -16.684
rfingers 7.12502
rthumb 9.76627 -46.4375
lclavicle -1.48592e-014 -2.28602e-015
lhumerus -39.5585 -2.37945 91.1566
lradius 27.5317
lwrist 33.6557
lhand -28.9401 -347.345
lfingers 7.12502
lthumb -2.29386 42.6227
rfemur -71.5243 -41.8216 1.76885
rtibia 122.651
rfoot 22.6931 18.645
rtoes 14.3396
lfemur 102.907 159.203 168.045
ltibia 129.199
lfoot 7.50979 -6.19237
ltoes -2.12245
292
root 1.27805 3.87534 19.3307 -425.403 -166.76 -718.609
lowerback 57.1149 4.89265 10.0026
upperback 23.8348 -3.09443 3.39192
thorax 6.17736 -7.36969 -0.392862
lowerneck -3.27986 4.73859 -7.71923
upperneck 11.4518 7.10536 -14.8733
head 4.29532 1.79509 -3.03863
rclavicle -3.47873e-014 -1.44367e-014
rhumerus -217.194 -171.896 89.0745
rradius 27.62
rwrist -49.455
rhand -16.6851 -16.9397
rfingers 7.12502
rthumb 9.53914 -46.7037
lclavicle -3.47873e-014 -1.44367e-014
lhumerus -40.347 -3.2877 91.5558
lradius 28.6539
lwrist 34.9734
lhand -29.004 -346.975
lfingers 7.12502
lthumb -2.35552 42.9918
rfemur -71.8552 -42.2284 1.6762
rtibia 123.079
rfoot 22.9367 18.9503
rtoes 14.9417
lfemur 102.824 159.776 167.726
ltibia 128.482
lfoot 8.40085 -6.02765
ltoes -3.12157
293
root 1.26472 3.82403 19.2754 -425.575 -166.803 -718.668
lowerback 56.9752 4.90238 9.98258
upperback 23.9755 -3.1904 3.4084
thorax 6.35224 -7.45214 -0.367635
lowerneck -3.07671 4.77863 -7.31455
upperneck 11.2939 7.11308 -15.0264
head 4.22766 1.83684 -3.15184
rclavicle 5.11995e-014 9.01985e-015
rhumerus -217.677 -174.031 88.3184
rradius 28.506
rwrist -51.2047
rhand -16.9984 -17.1756
rfingers 7.12502
rthumb 9.23686 -46.9533
lclavicle 5.11995e-014 9.01985e-015
lhumerus -41.1032 -4.10569 91.9195
lradius 29.6831
lwrist 36.1814
lhand -29.1111 -346.63
lfingers 7.12502
lthumb -2.45905 43.3358
rfemur -72.211 -42.6643 1.58846
rtibia 123.536
rfoot 23.1983 19.3028
rtoes 15.4287
lfemur 102.743 160.265 167.45
ltibia 127.806
lfoot 9.25232 -5.85572
ltoes -4.2948
